<svg width="32" height="32" viewBox="0 0 32 32" fill="none" xmlns="http://www.w3.org/2000/svg">
<path fill-rule="evenodd" clip-rule="evenodd" d="M8 6.66667C7.64638 6.66667 7.30724 6.80714 7.05719 7.05719C6.80714 7.30724 6.66667 7.64638 6.66667 8V9.33333H9.33333V6.66667H8ZM8 4C6.93913 4 5.92172 4.42143 5.17157 5.17157C4.42143 5.92172 4 6.93913 4 8V24C4 25.0609 4.42143 26.0783 5.17157 26.8284C5.92172 27.5786 6.93913 28 8 28H24C25.0609 28 26.0783 27.5786 26.8284 26.8284C27.5786 26.0783 28 25.0609 28 24V8C28 6.93913 27.5786 5.92172 26.8284 5.17157C26.0783 4.42143 25.0609 4 24 4H8ZM12 6.66667V14.6667H20V6.66667H12ZM22.6667 6.66667V9.33333H25.3333V8C25.3333 7.64638 25.1929 7.30724 24.9428 7.05719C24.6928 6.80714 24.3536 6.66667 24 6.66667H22.6667ZM25.3333 12H22.6667V14.6667H25.3333V12ZM25.3333 17.3333H22.6667V20H25.3333V17.3333ZM25.3333 22.6667H22.6667V25.3333H24C24.3536 25.3333 24.6928 25.1929 24.9428 24.9428C25.1929 24.6928 25.3333 24.3536 25.3333 24V22.6667ZM20 25.3333V17.3333H12V25.3333H20ZM9.33333 25.3333V22.6667H6.66667V24C6.66667 24.3536 6.80714 24.6928 7.05719 24.9428C7.30724 25.1929 7.64638 25.3333 8 25.3333H9.33333ZM6.66667 20H9.33333V17.3333H6.66667V20ZM6.66667 14.6667H9.33333V12H6.66667V14.6667Z" fill="black"/>
</svg>
