<svg width="32" height="32" viewBox="0 0 32 32" fill="none" xmlns="http://www.w3.org/2000/svg">
<path fill-rule="evenodd" clip-rule="evenodd" d="M13.3333 6.66667C12.9797 6.66667 12.6406 6.80714 12.3905 7.05719C12.1405 7.30724 12 7.64638 12 8V9.33333H20V8C20 7.64638 19.8595 7.30724 19.6095 7.05719C19.3594 6.80714 19.0203 6.66667 18.6667 6.66667H13.3333ZM22.6667 9.33333V8C22.6667 6.93913 22.2452 5.92172 21.4951 5.17157C20.7449 4.42143 19.7275 4 18.6667 4H13.3333C12.2725 4 11.2551 4.42143 10.5049 5.17157C9.75476 5.92172 9.33333 6.93913 9.33333 8V9.33333H8C6.93913 9.33333 5.92172 9.75476 5.17157 10.5049C4.42143 11.2551 4 12.2725 4 13.3333V24C4 25.0609 4.42143 26.0783 5.17157 26.8284C5.92172 27.5786 6.93913 28 8 28H24C25.0609 28 26.0783 27.5786 26.8284 26.8284C27.5786 26.0783 28 25.0609 28 24V13.3333C28 12.2725 27.5786 11.2551 26.8284 10.5049C26.0783 9.75476 25.0609 9.33333 24 9.33333H22.6667ZM8 12C7.64638 12 7.30724 12.1405 7.05719 12.3905C6.80714 12.6406 6.66667 12.9797 6.66667 13.3333V24C6.66667 24.3536 6.80714 24.6928 7.05719 24.9428C7.30724 25.1929 7.64638 25.3333 8 25.3333H24C24.3536 25.3333 24.6928 25.1929 24.9428 24.9428C25.1929 24.6928 25.3333 24.3536 25.3333 24V13.3333C25.3333 12.9797 25.1929 12.6406 24.9428 12.3905C24.6928 12.1405 24.3536 12 24 12H8ZM16 14.6667C16.7364 14.6667 17.3333 15.2636 17.3333 16V17.3333H18.6667C19.403 17.3333 20 17.9303 20 18.6667C20 19.403 19.403 20 18.6667 20H17.3333V21.3333C17.3333 22.0697 16.7364 22.6667 16 22.6667C15.2636 22.6667 14.6667 22.0697 14.6667 21.3333V20H13.3333C12.597 20 12 19.403 12 18.6667C12 17.9303 12.597 17.3333 13.3333 17.3333H14.6667V16C14.6667 15.2636 15.2636 14.6667 16 14.6667Z" fill="black"/>
</svg>
