<svg width="32" height="32" viewBox="0 0 32 32" fill="none" xmlns="http://www.w3.org/2000/svg">
<path fill-rule="evenodd" clip-rule="evenodd" d="M8 6.66667C7.64638 6.66667 7.30724 6.80714 7.05719 7.05719C6.80714 7.30724 6.66667 7.64638 6.66667 8V9.33333C6.66667 10.0697 6.06971 10.6667 5.33333 10.6667C4.59695 10.6667 4 10.0697 4 9.33333V8C4 6.93913 4.42143 5.92172 5.17157 5.17157C5.92172 4.42143 6.93913 4 8 4H10.6667C11.403 4 12 4.59695 12 5.33333C12 6.06971 11.403 6.66667 10.6667 6.66667H8ZM20 5.33333C20 4.59695 20.597 4 21.3333 4H24C25.0609 4 26.0783 4.42143 26.8284 5.17157C27.5786 5.92172 28 6.93913 28 8V9.33333C28 10.0697 27.403 10.6667 26.6667 10.6667C25.9303 10.6667 25.3333 10.0697 25.3333 9.33333V8C25.3333 7.64638 25.1929 7.30724 24.9428 7.05719C24.6928 6.80714 24.3536 6.66667 24 6.66667H21.3333C20.597 6.66667 20 6.06971 20 5.33333ZM5.33333 16C5.33333 15.2636 5.93029 14.6667 6.66667 14.6667H25.3333C26.0697 14.6667 26.6667 15.2636 26.6667 16C26.6667 16.7364 26.0697 17.3333 25.3333 17.3333H6.66667C5.93029 17.3333 5.33333 16.7364 5.33333 16ZM5.33333 21.3333C6.06971 21.3333 6.66667 21.9303 6.66667 22.6667V24C6.66667 24.3536 6.80714 24.6928 7.05719 24.9428C7.30724 25.1929 7.64638 25.3333 8 25.3333H10.6667C11.403 25.3333 12 25.9303 12 26.6667C12 27.403 11.403 28 10.6667 28H8C6.93913 28 5.92172 27.5786 5.17157 26.8284C4.42143 26.0783 4 25.0609 4 24V22.6667C4 21.9303 4.59695 21.3333 5.33333 21.3333ZM26.6667 21.3333C27.403 21.3333 28 21.9303 28 22.6667V24C28 25.0609 27.5786 26.0783 26.8284 26.8284C26.0783 27.5786 25.0609 28 24 28H21.3333C20.597 28 20 27.403 20 26.6667C20 25.9303 20.597 25.3333 21.3333 25.3333H24C24.3536 25.3333 24.6928 25.1929 24.9428 24.9428C25.1929 24.6928 25.3333 24.3536 25.3333 24V22.6667C25.3333 21.9303 25.9303 21.3333 26.6667 21.3333Z" fill="black"/>
</svg>
