<svg width="32" height="32" viewBox="0 0 32 32" fill="none" xmlns="http://www.w3.org/2000/svg">
<path fill-rule="evenodd" clip-rule="evenodd" d="M6.66663 8.00001C6.313 8.00001 5.97387 8.14049 5.72382 8.39053C5.47377 8.64058 5.33329 8.97972 5.33329 9.33334V12.2288C5.8905 12.4258 6.40251 12.7457 6.82839 13.1716C7.57853 13.9217 7.99996 14.9391 7.99996 16C7.99996 17.0609 7.57853 18.0783 6.82839 18.8284C6.40251 19.2543 5.8905 19.5742 5.33329 19.7712V22.6667C5.33329 23.0203 5.47377 23.3594 5.72382 23.6095C5.97387 23.8595 6.313 24 6.66663 24H18.6666V22.6667C18.6666 21.9303 19.2636 21.3333 20 21.3333C20.7363 21.3333 21.3333 21.9303 21.3333 22.6667V24H25.3333C25.6869 24 26.0261 23.8595 26.2761 23.6095C26.5261 23.3594 26.6666 23.0203 26.6666 22.6667V19.7712C26.1094 19.5742 25.5974 19.2543 25.1715 18.8284C24.4214 18.0783 24 17.0609 24 16C24 14.9391 24.4214 13.9217 25.1715 13.1716C25.5974 12.7457 26.1094 12.4258 26.6666 12.2288V9.33334C26.6666 8.97972 26.5261 8.64058 26.2761 8.39053C26.0261 8.14049 25.6869 8.00001 25.3333 8.00001H21.3333V9.33334C21.3333 10.0697 20.7363 10.6667 20 10.6667C19.2636 10.6667 18.6666 10.0697 18.6666 9.33334V8.00001H6.66663ZM6.66663 5.33334C5.60576 5.33334 4.58834 5.75477 3.8382 6.50492C3.08805 7.25506 2.66663 8.27248 2.66663 9.33334V13.3333C2.66663 14.0697 3.26358 14.6667 3.99996 14.6667C4.35358 14.6667 4.69272 14.8072 4.94277 15.0572C5.19282 15.3073 5.33329 15.6464 5.33329 16C5.33329 16.3536 5.19282 16.6928 4.94277 16.9428C4.69272 17.1929 4.35358 17.3333 3.99996 17.3333C3.26358 17.3333 2.66663 17.9303 2.66663 18.6667V22.6667C2.66663 23.7275 3.08805 24.745 3.8382 25.4951C4.58834 26.2452 5.60576 26.6667 6.66663 26.6667H25.3333C26.3942 26.6667 27.4116 26.2452 28.1617 25.4951C28.9119 24.745 29.3333 23.7275 29.3333 22.6667V18.6667C29.3333 17.9303 28.7363 17.3333 28 17.3333C27.6463 17.3333 27.3072 17.1929 27.0571 16.9428C26.8071 16.6928 26.6666 16.3536 26.6666 16C26.6666 15.6464 26.8071 15.3073 27.0571 15.0572C27.3072 14.8072 27.6463 14.6667 28 14.6667C28.7363 14.6667 29.3333 14.0697 29.3333 13.3333V9.33334C29.3333 8.27248 28.9119 7.25506 28.1617 6.50492C27.4116 5.75477 26.3942 5.33334 25.3333 5.33334H6.66663ZM20 13.3333C20.7363 13.3333 21.3333 13.9303 21.3333 14.6667V17.3333C21.3333 18.0697 20.7363 18.6667 20 18.6667C19.2636 18.6667 18.6666 18.0697 18.6666 17.3333V14.6667C18.6666 13.9303 19.2636 13.3333 20 13.3333Z" fill="black"/>
</svg>
