<svg width="32" height="32" viewBox="0 0 32 32" fill="none" xmlns="http://www.w3.org/2000/svg">
<path fill-rule="evenodd" clip-rule="evenodd" d="M6.50495 9.17157C7.25509 8.42143 8.27251 8 9.33337 8C10.3942 8 11.4117 8.42143 12.1618 9.17157C12.9119 9.92172 13.3334 10.9391 13.3334 12C13.3334 13.0609 12.9119 14.0783 12.1618 14.8284C11.4117 15.5786 10.3942 16 9.33337 16C8.27251 16 7.25509 15.5786 6.50495 14.8284C5.7548 14.0783 5.33337 13.0609 5.33337 12C5.33337 10.9391 5.7548 9.92172 6.50495 9.17157ZM9.33337 10.6667C8.97975 10.6667 8.64061 10.8071 8.39056 11.0572C8.14052 11.3072 8.00004 11.6464 8.00004 12C8.00004 12.3536 8.14052 12.6928 8.39056 12.9428C8.64061 13.1929 8.97975 13.3333 9.33337 13.3333C9.687 13.3333 10.0261 13.1929 10.2762 12.9428C10.5262 12.6928 10.6667 12.3536 10.6667 12C10.6667 11.6464 10.5262 11.3072 10.2762 11.0572C10.0261 10.8071 9.687 10.6667 9.33337 10.6667ZM2.66671 9.33333C3.40309 9.33333 4.00004 9.93029 4.00004 10.6667V17.3333H14.6667V12C14.6667 11.2636 15.2637 10.6667 16 10.6667H25.3334C26.7479 10.6667 28.1044 11.2286 29.1046 12.2288C30.1048 13.229 30.6667 14.5855 30.6667 16V22.6667C30.6667 23.403 30.0698 24 29.3334 24C28.597 24 28 23.403 28 22.6667V20H4.00004V22.6667C4.00004 23.403 3.40309 24 2.66671 24C1.93033 24 1.33337 23.403 1.33337 22.6667V10.6667C1.33337 9.93029 1.93033 9.33333 2.66671 9.33333ZM28 17.3333V16C28 15.2928 27.7191 14.6145 27.219 14.1144C26.7189 13.6143 26.0406 13.3333 25.3334 13.3333H17.3334V17.3333H28Z" fill="black"/>
</svg>
