<svg width="32" height="32" viewBox="0 0 32 32" fill="none" xmlns="http://www.w3.org/2000/svg">
<path fill-rule="evenodd" clip-rule="evenodd" d="M4 3.99999C4 3.26361 4.59695 2.66666 5.33333 2.66666H8C8.73638 2.66666 9.33333 3.26361 9.33333 3.99999V5.42516L26.7617 6.67004C27.1307 6.6964 27.4722 6.8749 27.7044 7.16285C27.9367 7.4508 28.0389 7.82231 27.9866 8.18855L26.6533 17.5219C26.5594 18.1787 25.9969 18.6667 25.3333 18.6667H9.33333V21.3333H22.6667C23.7275 21.3333 24.7449 21.7548 25.4951 22.5049C26.2452 23.255 26.6667 24.2725 26.6667 25.3333C26.6667 26.3942 26.2452 27.4116 25.4951 28.1617C24.7449 28.9119 23.7275 29.3333 22.6667 29.3333C21.6058 29.3333 20.5884 28.9119 19.8382 28.1617C19.0881 27.4116 18.6667 26.3942 18.6667 25.3333C18.6667 24.8747 18.7454 24.4243 18.8954 24H11.7712C11.9213 24.4243 12 24.8747 12 25.3333C12 26.3942 11.5786 27.4116 10.8284 28.1617C10.0783 28.9119 9.06087 29.3333 8 29.3333C6.93913 29.3333 5.92172 28.9119 5.17157 28.1617C4.42143 27.4116 4 26.3942 4 25.3333C4 24.2725 4.42143 23.255 5.17157 22.5049C5.59745 22.079 6.10946 21.7591 6.66667 21.5621V6.68042C6.66659 6.67218 6.66659 6.66392 6.66667 6.65565V5.33332H5.33333C4.59695 5.33332 4 4.73637 4 3.99999ZM9.33333 8.09862V16H24.1769L25.1444 9.22798L9.33333 8.09862ZM8 24C7.64638 24 7.30724 24.1405 7.05719 24.3905C6.80714 24.6406 6.66667 24.9797 6.66667 25.3333C6.66667 25.6869 6.80714 26.0261 7.05719 26.2761C7.30724 26.5262 7.64638 26.6667 8 26.6667C8.35362 26.6667 8.69276 26.5262 8.94281 26.2761C9.19286 26.0261 9.33333 25.6869 9.33333 25.3333C9.33333 24.9797 9.19286 24.6406 8.94281 24.3905C8.69276 24.1405 8.35362 24 8 24ZM22.6667 24C22.313 24 21.9739 24.1405 21.7239 24.3905C21.4738 24.6406 21.3333 24.9797 21.3333 25.3333C21.3333 25.6869 21.4738 26.0261 21.7239 26.2761C21.9739 26.5262 22.313 26.6667 22.6667 26.6667C23.0203 26.6667 23.3594 26.5262 23.6095 26.2761C23.8595 26.0261 24 25.6869 24 25.3333C24 24.9797 23.8595 24.6406 23.6095 24.3905C23.3594 24.1405 23.0203 24 22.6667 24Z" fill="black"/>
</svg>
