<svg width="32" height="32" viewBox="0 0 32 32" fill="none" xmlns="http://www.w3.org/2000/svg">
<path fill-rule="evenodd" clip-rule="evenodd" d="M8.00008 6.66667C7.64646 6.66667 7.30732 6.80714 7.05727 7.05719C6.80722 7.30724 6.66675 7.64638 6.66675 8V13.3333H17.3334V8C17.3334 7.64638 17.1929 7.30724 16.9429 7.05719C16.6928 6.80714 16.3537 6.66667 16.0001 6.66667H8.00008ZM20.0001 13.3333V8C20.0001 6.93913 19.5787 5.92172 18.8285 5.17157C18.0784 4.42143 17.0609 4 16.0001 4H8.00008C6.93922 4 5.9218 4.42143 5.17165 5.17157C4.42151 5.92172 4.00008 6.93913 4.00008 8V25.3333C3.2637 25.3333 2.66675 25.9303 2.66675 26.6667C2.66675 27.403 3.2637 28 4.00008 28H20.0001C20.7365 28 21.3334 27.403 21.3334 26.6667C21.3334 25.9303 20.7365 25.3333 20.0001 25.3333V16C20.3537 16 20.6928 16.1405 20.9429 16.3905C21.1929 16.6406 21.3334 16.9797 21.3334 17.3333V21.3333C21.3334 22.2174 21.6846 23.0652 22.3097 23.6904C22.9348 24.3155 23.7827 24.6667 24.6667 24.6667C25.5508 24.6667 26.3987 24.3155 27.0238 23.6904C27.6489 23.0652 28.0001 22.2174 28.0001 21.3333V12C28.0001 11.6464 27.8596 11.3072 27.6096 11.0572L24.9432 8.39088C24.943 8.39064 24.9435 8.39111 24.9432 8.39088L23.6096 7.05719C23.0889 6.53649 22.2446 6.53649 21.7239 7.05719C21.2032 7.57789 21.2032 8.42211 21.7239 8.94281L22.6667 9.88562V10.6667C22.6667 11.3739 22.9477 12.0522 23.4478 12.5523C23.9479 13.0524 24.6262 13.3333 25.3334 13.3333V21.3333C25.3334 21.5101 25.2632 21.6797 25.1382 21.8047C25.0131 21.9298 24.8436 22 24.6667 22C24.4899 22 24.3204 21.9298 24.1953 21.8047C24.0703 21.6797 24.0001 21.5101 24.0001 21.3333V17.3333C24.0001 16.2725 23.5787 15.2551 22.8285 14.5049C22.0784 13.7548 21.0609 13.3333 20.0001 13.3333ZM17.3334 16H6.66675V25.3333H17.3334V16Z" fill="black"/>
</svg>
