<svg width="390" height="252" viewBox="0 0 390 252" fill="none" xmlns="http://www.w3.org/2000/svg">
<g opacity="0.2">
<mask id="mask0_3118_1654" style="mask-type:alpha" maskUnits="userSpaceOnUse" x="0" y="0" width="390" height="252">
<rect width="390" height="252" fill="url(#paint0_linear_3118_1654)"/>
</mask>
<g mask="url(#mask0_3118_1654)">
<path d="M137.942 75.3337L175.122 80.0108L184.747 58.363L153.602 55.6382L133.887 61.8504C146.122 65.4415 147.472 70.9725 137.942 75.3337Z" fill="#052914"/>
<path d="M123.403 75.4078C111.25 78.7027 92.4796 78.7027 81.81 75.4152C71.3057 72.1721 72.873 67.0236 84.9766 63.9187C96.8976 60.8607 114.858 60.8607 125.402 63.9187C136.116 67.0212 135.363 72.1721 123.403 75.4078Z" fill="#052914"/>
<path d="M93.5533 233.076C106.758 238.653 110.482 245.369 108.421 253.052L176.25 255.18L267.762 216.12L264.648 154.567L115.808 148.18L54.177 196.713L54.3177 225.469C70.0692 225.785 82.2394 228.285 93.5533 233.076Z" fill="#052914"/>
<path d="M-12.198 273.177C-27.562 265.605 -29.9461 255.306 -21.3719 246.179L-33.0091 244.177L-66.9407 279.111L-13.047 307.171L6.49551 279.313C-0.555878 277.83 -6.91128 275.776 -12.198 273.177Z" fill="#052914"/>
<path d="M78.3842 268.086C55.1198 277.099 20.2207 277.099 1.58898 268.086C-16.5072 259.351 -11.6475 245.7 11.3701 237.59C33.7559 229.702 65.9425 229.702 84.2756 237.59C103.127 245.7 100.967 259.351 78.3842 268.086Z" fill="#052914"/>
<path d="M390.045 172.375L438.501 154.345L353.216 154.792L355.709 169.181C367.134 168.929 379.205 169.988 390.045 172.375Z" fill="#052914"/>
<path d="M398.974 199.265C384.546 205.499 357.254 205.499 338.748 199.265C320.651 193.171 318.356 183.585 332.943 177.844C347.211 172.232 372.803 172.232 390.751 177.844C409.096 183.588 413.075 193.176 398.974 199.265Z" fill="#052914"/>
<path d="M276.401 123.264L328.742 125.212L328.3 149.784L273.972 149.964L276.401 123.264Z" fill="#052914"/>
<path d="M276.112 82.2025L321.73 86.5686L316.638 61.3889L270.526 58.5555L276.112 82.2025Z" fill="#052914"/>
<path d="M259.482 57.6892L205.122 58.9874L195.402 81.2646L260.879 81.4571L259.482 57.6892Z" fill="#052914"/>
<path d="M194.01 -1L63.5088 29.1554L152.615 51.0944L252.458 12.5129L194.01 -1Z" fill="#052914"/>
<path d="M259.997 14.2579L163.033 52.758L190.389 55.6235L282.655 19.4953L259.997 14.2579Z" fill="#052914"/>
<path d="M295.871 22.5507L218.545 52.9603L272.338 51.5979L320.76 56.0429L356.308 36.5251L295.871 22.5507Z" fill="#052914"/>
<path d="M376.418 41.1702L345.167 59.1652L453.794 59.0615L376.418 41.1702Z" fill="#052914"/>
<path d="M171.716 83.5871L129.555 78.135C115.628 81.5978 96.1444 82.1235 81.5999 79.6973L59.1697 87.0153L146.61 104.235L171.716 83.5871Z" fill="#052914"/>
<path d="M268.226 226.108L179.562 265.628L108.107 262.059C104.102 266.072 97.9117 269.892 89.5497 273.175C74.6917 279.015 55.9686 282.045 37.6996 282.176L12.8976 320.691L193.388 414.694L328.001 344.693L268.226 226.108Z" fill="#052914"/>
<path d="M548.631 159.388L525.512 179.848L420.647 189.662C421.829 194.381 418.438 199.092 409.94 202.827C402.045 206.287 377.729 211.013 365.783 211.591L437.556 283.016L648.123 178.232L548.631 159.388Z" fill="#052914"/>
<path d="M322.969 174.608C325.509 173.624 328.32 172.785 331.314 172.069L330.237 154.474L278.913 154.567L284.022 212.632L317.003 196.14C307.484 191.031 307.032 180.801 322.969 174.608Z" fill="#052914"/>
<path d="M358.813 214.725C353.309 213.827 330.45 208.348 325.6 206.83L290.081 220.913L353.596 331.388L429.196 290.333L358.813 214.725Z" fill="#052914"/>
<path d="M428.705 74.5489L409.674 69.931L410.113 65.5822L337.637 65.022L341.097 84.9939L427.992 79.0655C426.726 77.5131 426.923 75.9458 428.705 74.5489Z" fill="#052914"/>
<path d="M-7.79263 78.5496C-30.2746 92.1365 -41.2133 112.938 -17.9933 123.644L-11.6305 124.294L-6.2081 104.815L45.2224 87.067L7.63554 65.9351C4.51337 69.8668 -0.41791 74.0947 -7.79263 78.5496Z" fill="#052914"/>
<path d="M-0.0401611 125.72L26.8869 129.746C32.3686 129.64 38.2057 129.371 44.4673 128.911C69.0818 127.134 96.3593 124.131 124.888 120.742L141.215 108.162L51.9926 90.2312L7.4555 105.941L-0.0401611 125.72Z" fill="#052914"/>
<path d="M10.8909 60.6435L54.6851 84.0831L73.2256 77.7796C73.1688 77.7598 73.0947 77.7401 73.033 77.7228C58.5131 73.1889 60.8998 66.0363 77.757 61.7591C91.5389 58.2544 111.01 57.6842 125.52 60.0067L143.206 53.9969L52.5798 31.6777L6.78894 42.2512C11.0069 46.7752 14.1735 53.0787 10.8909 60.6435Z" fill="#052914"/>
<path d="M155.364 117.067C164.575 115.947 173.855 114.821 183.17 113.708L162.023 111.363L154.71 117.149C154.93 117.119 155.147 117.094 155.364 117.067Z" fill="#052914"/>
<path d="M261.409 122.401C232.915 125.343 203.418 129.077 173.747 132.828C158.18 134.795 142.804 136.738 127.662 138.559L121.998 143.034L264.28 149.876L262.799 122.556L261.409 122.401Z" fill="#052914"/>
<path d="M325.407 101.222L323.475 90.0732L273.115 85.5837L274.688 104.213C291.683 102.853 308.617 101.807 325.407 101.222Z" fill="#052914"/>
<path d="M291.017 119.619L328.833 121.021L328.167 117.178C316.026 117.733 303.629 118.565 291.017 119.619Z" fill="#052914"/>
<path d="M432.837 122.085C418.178 119.51 403.032 117.928 387.47 117.101L347.647 122.726L352.295 149.518L452.855 148.997L498.086 132.167C475.72 129.138 453.816 125.76 432.837 122.085Z" fill="#052914"/>
<path d="M433.777 105.479L511.412 94.6442L476.246 86.0947C465.983 87.8791 451.101 87.3633 439.807 84.5595C437.566 84.0018 435.638 83.3847 433.979 82.7455L341.81 89.0861L343.834 100.765C374.022 100.355 404.073 101.604 433.777 105.479Z" fill="#052914"/>
<path d="M346.574 116.561L346.762 117.625L355.323 116.433C352.426 116.448 349.511 116.5 346.574 116.561Z" fill="#052914"/>
<path d="M202.165 111.477C222.142 109.174 242.215 107.027 262.167 105.262L261.039 84.942L192.838 84.9297L166.16 107.419L202.165 111.477Z" fill="#052914"/>
<path d="M27.3383 195.563L93.7305 145.053L83.5644 143.466C72.6159 144.567 61.8524 145.542 51.321 146.329C26.4819 148.202 6.05088 148.096 -10.5225 146.852L-31.415 235.396L-12.8746 239.567C-8.92561 237.217 -4.13008 235.023 1.47253 233.078C9.01755 230.455 17.3277 228.525 25.897 227.263L27.3383 195.563Z" fill="#052914"/>
<path d="M261.029 116.717C261.98 114.668 265.181 111.499 263.816 109.112C229.176 112.244 193.976 116.564 159.701 120.774C155.947 121.233 152.215 121.692 148.484 122.146C145.89 125.94 141.022 129.531 135.477 133.11C146.593 131.752 157.84 130.343 169.201 128.921C200.104 125.051 230.812 121.206 260.541 118.215C260.644 117.714 260.802 117.215 261.029 116.717Z" fill="#052914"/>
<path d="M327.298 104.953C311.877 105.504 296.289 106.454 280.601 107.691C282.655 110.512 280.769 113.73 279.488 116.425C296.698 114.907 313.598 113.74 330.099 113.083C329.539 110.336 327.755 107.626 327.298 104.953Z" fill="#052914"/>
<path d="M547.913 125.34C514.329 121.719 480.415 117.072 447.656 111.499C414.089 105.788 379.637 103.978 344.772 104.504C345.207 107.17 347.312 109.853 347.887 112.582C378.926 112.081 408.938 113.676 437.635 118.659C469.888 124.261 504.319 129.143 539.097 133.077C542.577 130.558 545.692 128.005 547.913 125.34Z" fill="#052914"/>
<path d="M-20.7746 54.8237C-13.5826 55.7739 -5.84997 56.6476 0.917587 57.8397C2.30713 52.4593 0.310431 47.8661 -2.57726 44.2898L-23.5513 49.1347C-22.7713 50.813 -22.2975 52.674 -22.3221 54.683C-21.8014 54.7127 -21.2855 54.762 -20.7746 54.8237Z" fill="#052914"/>
<path d="M115.865 126.068C91.3515 128.921 67.8329 131.414 46.074 133.001C32.8573 133.971 20.9437 134.225 10.4073 133.786C10.5184 136.864 7.39871 139.927 3.34607 143.022C16.3752 143.562 31.7096 143.345 49.6182 142.015C65.034 140.867 81.0521 139.31 97.4897 137.525C103.833 133.658 110.637 129.909 115.865 126.068Z" fill="#052914"/>
</g>
</g>
<defs>
<linearGradient id="paint0_linear_3118_1654" x1="195" y1="0" x2="195" y2="252" gradientUnits="userSpaceOnUse">
<stop offset="0.07" stop-color="#D9D9D9" stop-opacity="0"/>
<stop offset="1" stop-color="#737373"/>
</linearGradient>
</defs>
</svg>
