<svg width="32" height="32" viewBox="0 0 32 32" fill="none" xmlns="http://www.w3.org/2000/svg">
<path fill-rule="evenodd" clip-rule="evenodd" d="M25.8581 2.77426C26.3486 2.98424 26.6667 3.46643 26.6667 3.99999V28C26.6667 28.7364 26.0698 29.3333 25.3334 29.3333H24C23.2637 29.3333 22.6667 28.7364 22.6667 28V24C22.6667 23.2636 23.2637 22.6667 24 22.6667V21.3333H18.6667C17.9336 21.3333 17.338 20.7414 17.3334 20.0083C17.318 17.536 17.3737 14.8795 18.3148 12.0374C19.2624 9.17574 21.0718 6.22244 24.4131 3.03521C24.7991 2.66692 25.3676 2.56427 25.8581 2.77426ZM24 18.6667V7.36831C22.3661 9.34661 21.4124 11.166 20.8463 12.8756C20.1973 14.8354 20.0338 16.7161 20.0039 18.6667H24ZM6.66671 3.99999C7.40309 3.99999 8.00004 4.59695 8.00004 5.33332V9.33333C8.00004 10.0406 8.28099 10.7188 8.78109 11.2189C8.94732 11.3852 9.13325 11.5272 9.33337 11.6427V5.33332C9.33337 4.59695 9.93033 3.99999 10.6667 3.99999C11.4031 3.99999 12 4.59695 12 5.33332V11.6427C12.2002 11.5272 12.3861 11.3852 12.5523 11.2189C13.0524 10.7188 13.3334 10.0406 13.3334 9.33333V5.33332C13.3334 4.59695 13.9303 3.99999 14.6667 3.99999C15.4031 3.99999 16 4.59695 16 5.33332V9.33333C16 10.7478 15.4381 12.1044 14.4379 13.1046C13.7586 13.784 12.9147 14.2611 12 14.4973V28C12 28.7364 11.4031 29.3333 10.6667 29.3333C9.93033 29.3333 9.33337 28.7364 9.33337 28V14.4973C8.41867 14.2611 7.57486 13.784 6.89547 13.1046C5.89528 12.1044 5.33337 10.7478 5.33337 9.33333V5.33332C5.33337 4.59695 5.93033 3.99999 6.66671 3.99999Z" fill="black"/>
</svg>
