<svg width="32" height="32" viewBox="0 0 32 32" fill="none" xmlns="http://www.w3.org/2000/svg">
<path fill-rule="evenodd" clip-rule="evenodd" d="M16.0001 5.33332C15.2928 5.33332 14.6145 5.61427 14.1144 6.11437C13.6143 6.61447 13.3334 7.29275 13.3334 7.99999V9.33332H18.6667V7.99999C18.6667 7.29275 18.3858 6.61447 17.8857 6.11437C17.3856 5.61427 16.7073 5.33332 16.0001 5.33332ZM21.3334 9.33332V7.99999C21.3334 6.5855 20.7715 5.22895 19.7713 4.22875C18.7711 3.22856 17.4145 2.66666 16.0001 2.66666C14.5856 2.66666 13.229 3.22856 12.2288 4.22875C11.2286 5.22895 10.6667 6.5855 10.6667 7.99999V9.33332H8.44162M10.6667 12H8.44146C8.24921 12 8.05908 12.0415 7.88439 12.1218C7.70971 12.2021 7.55445 12.3192 7.42926 12.4651C7.30407 12.611 7.21191 12.7822 7.1591 12.967C7.10631 13.1518 7.09408 13.3459 7.12328 13.5358C7.12327 13.5358 7.12328 13.5359 7.12328 13.5358L8.7966 24.4051C8.89342 25.0347 9.21244 25.609 9.69586 26.0238C10.1793 26.4386 10.7952 26.6666 11.4321 26.6667C11.4321 26.6667 11.4321 26.6667 11.4321 26.6667H20.5681C21.2053 26.6668 21.8218 26.4389 22.3054 26.0241C22.789 25.6093 23.1081 25.035 23.205 24.4053L24.8783 13.536C24.8783 13.5361 24.8783 13.5359 24.8783 13.536C24.9075 13.346 24.8953 13.1518 24.8425 12.967C24.7897 12.7822 24.6975 12.611 24.5723 12.4651C24.4471 12.3192 24.2919 12.2021 24.1172 12.1218C23.9425 12.0415 23.7525 12 23.5603 12H21.3334V14.6667C21.3334 15.403 20.7364 16 20.0001 16C19.2637 16 18.6667 15.403 18.6667 14.6667V12H13.3334V14.6667C13.3334 15.403 12.7364 16 12.0001 16C11.2637 16 10.6667 15.403 10.6667 14.6667V12ZM21.3334 9.33332H23.56C23.5599 9.33332 23.56 9.33332 23.56 9.33332C24.1366 9.33328 24.7067 9.45792 25.2307 9.69872C25.7547 9.93954 26.2205 10.2908 26.5961 10.7285C26.9716 11.1662 27.2481 11.68 27.4066 12.2345C27.565 12.789 27.6016 13.3713 27.514 13.9413L25.8406 24.8107C25.8406 24.8107 25.8406 24.8106 25.8406 24.8107C25.6469 26.07 25.0087 27.2186 24.0415 28.0482C23.0744 28.8777 21.8423 29.3336 20.5681 29.3333C20.568 29.3333 20.5683 29.3333 20.5681 29.3333H11.4321C10.1582 29.3333 8.92625 28.8772 7.9594 28.0476C6.99261 27.2181 6.35466 26.0699 6.16098 24.8109C6.16097 24.8108 6.16099 24.8109 6.16098 24.8109L4.48765 13.9415C4.39999 13.3715 4.43659 12.789 4.59503 12.2345C4.75346 11.6799 5.02994 11.1662 5.40551 10.7285C5.78108 10.2908 6.24685 9.93954 6.7709 9.69872C7.29491 9.45792 7.86494 9.33328 8.44162 9.33332" fill="black"/>
</svg>
